@startuml
skinparam classAttributeIconSize 0
skinparam groupInheritance 2
'hide circle
left to right direction

/'
relations hint

Zero or One	    |o--
Exactly One     ||--
Zero or Many    }o--
One or Many	    }|--
'/

/'

entity ingredients_units {
}

entity ingredients_information {
    재료 정보 데이터
    --
    ingredients_id: long
}

enum ingredientsUnit {
    piece,
    slice,
    fruit,
    g,
    oz,
    cup,
    serving
}

ingredients ||..o{ ingredients_information'/

entity ingredients {
    재료 메타 데이터
    --
    *id: long <<generated>>
    name: varchar
    category_cd: varchar
}

entity recipes {
    레시피
    --
    *id: long <<generated>>
    title: varchar
    contents: varchar
    language_cd: varchar
    category_cd: varchar
    serving: varchar
    lastModifiedAt: timestamp
}

entity recipe_instructions {
    레시피 조리 순서
    --
    *id: long <<generated>>
    recipe_id: long <<FK>>
    summary: varchar
    ordinal: int
}

entity recipe_ingredients {
    레시피 재료
    --
    *id: long <<generated>>
    recipe_id: long <<FK>>
    ingredient_id: long
}

entity recipe_images {
    레시피 이미지(고민중..)
    --
    *id: long <<generated>>
    recipe_id: long <<FK>>
}

recipes ||..|{ recipe_ingredients
recipes ||..|{ recipe_images
recipes ||..|{ recipe_instructions

ingredients ||..|{ recipe_ingredients


json recipe_ingredients_sample {
    "aisle": "Milk, Eggs, Other Dairy",
    "amount": 1.0,
    "consitency": "solid",
    "id": 1001,
    "image": "butter-sliced.jpg",
    "measures": {
       "metric": {
           "amount": 1.0,
           "unitLong": "Tbsp",
           "unitShort": "Tbsp"
       },
       "us": {
           "amount": 1.0,
           "unitLong": "Tbsp",
           "unitShort": "Tbsp"
       }
    },
    "meta": [],
    "name": "butter",
    "original": "1 tbsp butter",
    "originalName": "butter",
    "unit": "tbsp"
}
@enduml


@startjson
{[
     {
         "aisle": "Milk, Eggs, Other Dairy",
         "amount": 1.0,
         "consitency": "solid",
         "id": 1001,
         "image": "butter-sliced.jpg",
         "measures": {
             "metric": {
                 "amount": 1.0,
                 "unitLong": "Tbsp",
                 "unitShort": "Tbsp"
             },
             "us": {
                 "amount": 1.0,
                 "unitLong": "Tbsp",
                 "unitShort": "Tbsp"
             }
         },
         "meta": [],
         "name": "butter",
         "original": "1 tbsp butter",
         "originalName": "butter",
         "unit": "tbsp"
     },
     {
         "aisle": "Produce",
         "amount": 2.0,
         "consitency": "solid",
         "id": 10011135,
         "image": "cauliflower.jpg",
         "measures": {
             "metric": {
                 "amount": 473.176,
                 "unitLong": "milliliters",
                 "unitShort": "ml"
             },
             "us": {
                 "amount": 2.0,
                 "unitLong": "cups",
                 "unitShort": "cups"
             }
         },
         "meta": [
             "frozen",
             "thawed",
             "cut into bite-sized pieces"
         ],
         "name": "cauliflower florets",
         "original": "about 2 cups frozen cauliflower florets, thawed, cut into bite-sized pieces",
         "originalName": "about frozen cauliflower florets, thawed, cut into bite-sized pieces",
         "unit": "cups"
     },
     {
         "aisle": "Cheese",
         "amount": 2.0,
         "consitency": "solid",
         "id": 1041009,
         "image": "cheddar-cheese.png",
         "measures": {
             "metric": {
                 "amount": 2.0,
                 "unitLong": "Tbsps",
                 "unitShort": "Tbsps"
             },
             "us": {
                 "amount": 2.0,
                 "unitLong": "Tbsps",
                 "unitShort": "Tbsps"
             }
         },
         "meta": [
             "grated",
             "(I used romano)"
         ],
         "name": "cheese",
         "original": "2 tbsp grated cheese (I used romano)",
         "originalName": "grated cheese (I used romano)",
         "unit": "tbsp"
     },
     {
         "aisle": "Oil, Vinegar, Salad Dressing",
         "amount": 1.0,
         "consitency": "liquid",
         "id": 1034053,
         "image": "olive-oil.jpg",
         "measures": {
             "metric": {
                 "amount": 1.0,
                 "unitLong": "Tbsp",
                 "unitShort": "Tbsp"
             },
             "us": {
                 "amount": 1.0,
                 "unitLong": "Tbsp",
                 "unitShort": "Tbsp"
             }
         },
         "meta": [],
         "name": "extra virgin olive oil",
         "original": "1-2 tbsp extra virgin olive oil",
         "originalName": "extra virgin olive oil",
         "unit": "tbsp"
     },
     {
         "aisle": "Produce",
         "amount": 5.0,
         "consitency": "solid",
         "id": 11215,
         "image": "garlic.jpg",
         "measures": {
             "metric": {
                 "amount": 5.0,
                 "unitLong": "cloves",
                 "unitShort": "cloves"
             },
             "us": {
                 "amount": 5.0,
                 "unitLong": "cloves",
                 "unitShort": "cloves"
             }
         },
         "meta": [],
         "name": "garlic",
         "original": "5-6 cloves garlic",
         "originalName": "garlic",
         "unit": "cloves"
     },
     {
         "aisle": "Pasta and Rice",
         "amount": 6.0,
         "consitency": "solid",
         "id": 20420,
         "image": "fusilli.jpg",
         "measures": {
             "metric": {
                 "amount": 170.097,
                 "unitLong": "grams",
                 "unitShort": "g"
             },
             "us": {
                 "amount": 6.0,
                 "unitLong": "ounces",
                 "unitShort": "oz"
             }
         },
         "meta": [
             "(I used linguine)"
         ],
         "name": "pasta",
         "original": "6-8 ounces pasta (I used linguine)",
         "originalName": "pasta (I used linguine)",
         "unit": "ounces"
     },
     {
         "aisle": "Spices and Seasonings",
         "amount": 2.0,
         "consitency": "solid",
         "id": 1032009,
         "image": "red-pepper-flakes.jpg",
         "measures": {
             "metric": {
                 "amount": 2.0,
                 "unitLong": "pinches",
                 "unitShort": "pinches"
             },
             "us": {
                 "amount": 2.0,
                 "unitLong": "pinches",
                 "unitShort": "pinches"
             }
         },
         "meta": [
             "red"
         ],
         "name": "red pepper flakes",
         "original": "couple of pinches red pepper flakes, optional",
         "originalName": "couple of red pepper flakes, optional",
         "unit": "pinches"
     },
     {
         "aisle": "Spices and Seasonings",
         "amount": 2.0,
         "consitency": "solid",
         "id": 1102047,
         "image": "salt-and-pepper.jpg",
         "measures": {
             "metric": {
                 "amount": 2.0,
                 "unitLong": "servings",
                 "unitShort": "servings"
             },
             "us": {
                 "amount": 2.0,
                 "unitLong": "servings",
                 "unitShort": "servings"
             }
         },
         "meta": [
             "to taste"
         ],
         "name": "salt and pepper",
         "original": "salt and pepper, to taste",
         "originalName": "salt and pepper, to taste",
         "unit": "servings"
     },
     {
         "aisle": "Produce",
         "amount": 3.0,
         "consitency": "solid",
         "id": 11291,
         "image": "spring-onions.jpg",
         "measures": {
             "metric": {
                 "amount": 3.0,
                 "unitLong": "",
                 "unitShort": ""
             },
             "us": {
                 "amount": 3.0,
                 "unitLong": "",
                 "unitShort": ""
             }
         },
         "meta": [
             "white",
             "green",
             "separated",
             "chopped"
         ],
         "name": "scallions",
         "original": "3 scallions, chopped, white and green parts separated",
         "originalName": "scallions, chopped, white and green parts separated",
         "unit": ""
     },
     {
         "aisle": "Alcoholic Beverages",
         "amount": 2.0,
         "consitency": "liquid",
         "id": 14106,
         "image": "white-wine.jpg",
         "measures": {
             "metric": {
                 "amount": 2.0,
                 "unitLong": "Tbsps",
                 "unitShort": "Tbsps"
             },
             "us": {
                 "amount": 2.0,
                 "unitLong": "Tbsps",
                 "unitShort": "Tbsps"
             }
         },
         "meta": [
             "white"
         ],
         "name": "white wine",
         "original": "2-3 tbsp white wine",
         "originalName": "white wine",
         "unit": "tbsp"
     },
     {
         "aisle": "Pasta and Rice",
         "amount": 0.25,
         "consitency": "solid",
         "id": 99025,
         "image": "breadcrumbs.jpg",
         "measures": {
             "metric": {
                 "amount": 59.147,
                 "unitLong": "milliliters",
                 "unitShort": "ml"
             },
             "us": {
                 "amount": 0.25,
                 "unitLong": "cups",
                 "unitShort": "cups"
             }
         },
         "meta": [
             "whole wheat",
             "(I used panko)"
         ],
         "name": "whole wheat bread crumbs",
         "original": "1/4 cup whole wheat bread crumbs (I used panko)",
         "originalName": "whole wheat bread crumbs (I used panko)",
         "unit": "cup"
     }
 ]}
 @endjson